<svg width="37" height="37" viewBox="0 0 37 37" fill="none" xmlns="http://www.w3.org/2000/svg">
<circle cx="18.4285" cy="18.4285" r="17.9285" stroke="black" stroke-opacity="0.2"/>
<g clip-path="url(#clip0_174_961)">
<path d="M24.7737 15.6335C24.936 15.1466 25.0172 14.6418 25.0172 14.119C25.0172 13.4219 24.8638 12.7668 24.5574 12.1538C23.9145 12.1538 23.3466 12.2711 22.8537 12.5054C22.361 12.7398 21.7991 13.1033 21.1683 13.5961C20.3751 13.4038 19.5335 13.3077 18.6443 13.3077C17.6707 13.3077 16.7422 13.4129 15.8588 13.6232C15.2158 13.1184 14.6479 12.7474 14.1551 12.51C13.6623 12.2725 13.0915 12.1538 12.4424 12.1538C12.1359 12.7668 11.9827 13.4219 11.9827 14.119C11.9827 14.6479 12.0637 15.1587 12.226 15.6514C11.4086 16.607 11 17.7969 11 19.2212C11 20.4713 11.1862 21.4658 11.5589 22.2051C11.7573 22.5956 12.0156 22.9411 12.3341 23.2417C12.6525 23.5421 13.0161 23.7857 13.4248 23.972C13.8336 24.1582 14.2451 24.313 14.6599 24.4361C15.0745 24.5592 15.5327 24.6495 16.0346 24.7063C16.5364 24.7637 16.9796 24.8012 17.3641 24.8193C17.7487 24.8371 18.1754 24.8463 18.6443 24.8463C19.197 24.8463 19.6987 24.8326 20.1496 24.8058C20.6004 24.7788 21.1156 24.7125 21.6956 24.6076C22.2755 24.5024 22.7863 24.3595 23.2281 24.1793C23.6699 23.9991 24.0936 23.7406 24.4993 23.4042C24.9049 23.0675 25.2218 22.6679 25.4503 22.2051C25.8167 21.4599 26 20.4652 26 19.2212C25.9998 17.7909 25.5912 16.595 24.7737 15.6335ZM23.6923 22.1914C23.5 22.5851 23.2566 22.8943 22.9621 23.1199C22.6676 23.3453 22.3011 23.5256 21.8624 23.6609C21.4235 23.7961 21.0031 23.8847 20.6004 23.9266C20.1976 23.9688 19.75 23.9897 19.2571 23.9897H17.7426C17.2499 23.9897 16.8021 23.9688 16.3995 23.9266C15.9969 23.8847 15.5762 23.7961 15.1375 23.6609C14.6989 23.5256 14.3323 23.3453 14.0378 23.1199C13.7433 22.8943 13.4999 22.5851 13.3076 22.1914C13.1153 21.7976 13.0191 21.3365 13.0191 20.8077C13.0191 20.0863 13.2265 19.4733 13.6412 18.9687C14.0559 18.4638 14.6177 18.2115 15.3268 18.2115C15.5853 18.2115 16.1712 18.2746 17.0847 18.4008C17.5113 18.4669 17.9831 18.4999 18.4999 18.4999C19.0168 18.4999 19.4886 18.467 19.9151 18.4008C20.8408 18.2745 21.4265 18.2115 21.6731 18.2115C22.3821 18.2115 22.944 18.464 23.3587 18.9687C23.7734 19.4735 23.9806 20.0863 23.9806 20.8077C23.9806 21.3366 23.8844 21.798 23.6923 22.1914Z" fill="black"/>
<path d="M16.2684 19.3834C16.0851 19.1789 15.8673 19.0767 15.6148 19.0767C15.3623 19.0767 15.1445 19.1791 14.9612 19.3834C14.7781 19.5876 14.6488 19.816 14.5737 20.0682C14.4984 20.3208 14.4609 20.5671 14.4609 20.8077C14.4609 21.0479 14.4985 21.2943 14.5737 21.5469C14.6487 21.7992 14.7779 22.0275 14.9612 22.2317C15.1446 22.4362 15.3623 22.5384 15.6148 22.5384C15.8673 22.5384 16.0852 22.436 16.2684 22.2317C16.4516 22.0275 16.5809 21.7992 16.6559 21.5469C16.7311 21.2943 16.7687 21.0479 16.7687 20.8077C16.7687 20.5674 16.7312 20.3208 16.6559 20.0682C16.5808 19.8161 16.4517 19.5878 16.2684 19.3834Z" fill="black"/>
<path d="M22.0379 19.3834C21.8546 19.1789 21.6368 19.0767 21.3844 19.0767C21.1321 19.0767 20.9142 19.1791 20.7308 19.3834C20.5476 19.5876 20.4184 19.816 20.3434 20.0682C20.2681 20.3208 20.2305 20.5671 20.2305 20.8077C20.2305 21.0479 20.2681 21.2943 20.3434 21.5469C20.4184 21.7992 20.5476 22.0275 20.7308 22.2317C20.9142 22.4362 21.1321 22.5384 21.3844 22.5384C21.6368 22.5384 21.8547 22.436 22.0379 22.2317C22.221 22.0275 22.3503 21.7992 22.4255 21.5469C22.5007 21.2943 22.5382 21.0479 22.5382 20.8077C22.5382 20.5674 22.5007 20.3208 22.4255 20.0682C22.3504 19.8161 22.221 19.5878 22.0379 19.3834Z" fill="black"/>
</g>
<defs>
<clipPath id="clip0_174_961">
<rect width="15" height="15" fill="white" transform="translate(11 11)"/>
</clipPath>
</defs>
</svg>
