<svg width="37" height="37" viewBox="0 0 37 37" fill="none" xmlns="http://www.w3.org/2000/svg">
<circle cx="18.4285" cy="18.4285" r="17.9285" stroke="black" stroke-opacity="0.2"/>
<g clip-path="url(#clip0_174_963)">
<path d="M22.3943 10H18.817C17.2229 10 16.1195 10.3495 15.1263 11.1699C14.3452 11.8438 13.8791 12.8232 13.8791 13.7899C13.8791 15.2792 15.0146 16.862 17.1188 16.862C17.3212 16.862 17.5452 16.8412 17.7428 16.8228L17.7137 16.8936C17.6291 17.0962 17.549 17.2874 17.549 17.5857C17.549 18.1667 17.8293 18.525 18.1002 18.8712L18.1343 18.9151L18.0737 18.9193C17.2048 18.9787 15.5875 19.0897 14.4061 19.8158C13.0108 20.6453 12.9023 21.8521 12.9023 22.2021C12.9023 23.5944 14.1999 24.9998 17.099 24.9998C20.47 24.9998 22.2338 23.1401 22.2338 21.3031C22.2341 19.9443 21.4374 19.2735 20.5917 18.5614L19.8783 18.0065C19.6579 17.8238 19.3834 17.5966 19.3834 17.1755C19.3834 16.7616 19.6579 16.4883 19.9002 16.2473L19.9254 16.2217C20.6958 15.6149 21.5689 14.9269 21.5689 13.4388C21.5689 11.9426 20.634 11.1695 20.1845 10.7978H21.3716C21.3861 10.7978 21.4007 10.7938 21.4128 10.7859L22.4354 10.143C22.4645 10.1246 22.4781 10.0891 22.4685 10.0559C22.4594 10.0228 22.4287 10 22.3943 10ZM18.0562 24.1802C16.0014 24.1802 14.6208 23.2205 14.6208 21.792C14.6208 20.8593 15.1855 20.1815 16.2976 19.7786C17.1882 19.4788 18.3379 19.4639 18.3493 19.4639C18.5441 19.4639 18.642 19.4639 18.7975 19.4835C20.2353 20.5067 20.9265 21.0439 20.9265 22.0671C20.9263 23.3706 19.8264 24.1802 18.0562 24.1802ZM18.0369 16.3137C16.3123 16.3137 15.5966 14.0469 15.5966 12.8331C15.5966 12.2159 15.737 11.7422 16.0257 11.3845C16.3391 10.9924 16.8758 10.7391 17.3929 10.7391C18.9763 10.7391 19.8519 12.8673 19.8519 14.3383C19.8519 14.5703 19.8519 15.2763 19.3642 15.7666C19.0362 16.0939 18.5028 16.3137 18.0369 16.3137Z" fill="black"/>
<path d="M27.4083 17.0057H25.5233V15.1274C25.5233 15.0846 25.4884 15.0499 25.4458 15.0499H24.635C24.5922 15.0499 24.5575 15.0846 24.5575 15.1274V17.0057H22.6819C22.6392 17.0057 22.6045 17.0404 22.6045 17.0832V17.9049C22.6045 17.9475 22.6392 17.9823 22.6819 17.9823H24.5575V19.8728C24.5575 19.9154 24.5922 19.9502 24.635 19.9502H25.4458C25.4884 19.9502 25.5233 19.9154 25.5233 19.8728V17.982H27.4083C27.451 17.982 27.4857 17.9475 27.4857 17.9046V17.0832C27.4857 17.0403 27.4512 17.0057 27.4083 17.0057Z" fill="black"/>
</g>
<defs>
<clipPath id="clip0_174_963">
<rect width="15.0002" height="15" fill="white" transform="translate(12.6943 10)"/>
</clipPath>
</defs>
</svg>
