<svg width="37" height="37" viewBox="0 0 37 37" fill="none" xmlns="http://www.w3.org/2000/svg">
<circle cx="18.4285" cy="18.4285" r="17.9285" stroke="black" stroke-opacity="0.2"/>
<g clip-path="url(#clip0_174_962)">
<path d="M25.9562 20.0944V25.6238H22.7506V20.4647C22.7506 19.1687 22.287 18.2843 21.1266 18.2843C20.2409 18.2843 19.7138 18.8803 19.4819 19.4569C19.3973 19.6631 19.3755 19.95 19.3755 20.2385V25.6238H16.1689C16.1689 25.6238 16.212 16.886 16.1689 15.9807H19.3752V17.3476C19.3687 17.3578 19.3603 17.3688 19.3541 17.3787H19.3752V17.3476C19.8012 16.6915 20.562 15.7542 22.2649 15.7542C24.3746 15.7541 25.9562 17.1324 25.9562 20.0944ZM12.8145 11.3323C11.7175 11.3323 11 12.0518 11 12.998C11 13.9237 11.6968 14.665 12.772 14.665H12.7934C13.9116 14.665 14.6071 13.9238 14.6071 12.998C14.586 12.0518 13.9116 11.3323 12.8145 11.3323ZM11.1904 25.6238H14.3959V15.9807H11.1904V25.6238Z" fill="black"/>
</g>
<defs>
<clipPath id="clip0_174_962">
<rect width="14.9562" height="14.9562" fill="white" transform="translate(11 11)"/>
</clipPath>
</defs>
</svg>
