<svg width="16" height="16" viewBox="0 0 16 16" fill="none" xmlns="http://www.w3.org/2000/svg">
<path d="M12.9293 11.0554C13.5945 11.0484 14.1762 10.5991 14.3469 9.9547L15.9874 3.84534C16.0397 3.64681 15.9247 3.44479 15.7262 3.38906C15.6948 3.38209 15.6635 3.37512 15.6321 3.37512H3.29153L2.4521 0.275165C2.4103 0.114942 2.26401 0 2.09683 0H0V0.7419H1.80425L2.61581 3.7722C2.61232 3.79658 2.61232 3.82096 2.61581 3.84534L4.2877 9.9756C4.29814 10.0244 4.31556 10.0766 4.33298 10.1254L4.89724 12.1804C4.35387 12.4695 3.98467 13.0407 3.98467 13.699C3.98467 14.6499 4.75443 15.4197 5.70532 15.4197C6.6562 15.4197 7.42597 14.6499 7.42597 13.699C7.42597 13.403 7.34934 13.1208 7.21698 12.877C7.18563 12.8213 7.15429 12.7656 7.11597 12.7098H11.4942C11.2992 12.9885 11.1807 13.3298 11.1807 13.699C11.1807 14.6499 11.9505 15.4197 12.9014 15.4197C13.8523 15.4197 14.6221 14.6499 14.6221 13.699C14.6221 13.2497 14.4514 12.8422 14.1692 12.5357C13.8662 12.1908 13.4204 11.9714 12.9223 11.9679H5.63914L5.37791 11.0101C5.48936 11.0379 5.60431 11.0554 5.71925 11.0554H12.9293ZM12.9049 12.7098C13.4517 12.7098 13.8941 13.1522 13.8941 13.699C13.8941 14.2459 13.4517 14.6882 12.9049 14.6882C12.358 14.6882 11.9157 14.2459 11.9157 13.699C11.9157 13.1522 12.358 12.7098 12.9049 12.7098ZM5.70532 12.7098C6.25216 12.7098 6.69103 13.1557 6.69103 13.699C6.69103 14.2459 6.24868 14.6882 5.70183 14.6882C5.15499 14.6882 4.71612 14.2459 4.71612 13.699C4.71612 13.1522 5.15847 12.7098 5.70532 12.7098ZM5.04353 9.84324L4.21107 6.79901L3.46917 4.12399H15.1341L13.6259 9.78751C13.5423 10.1114 13.2532 10.3378 12.9188 10.3448H5.71228C5.40925 10.3274 5.14454 10.1323 5.04353 9.84324Z" fill="#575757"/>
</svg>
