<svg width="23" height="20" viewBox="0 0 23 20" fill="none" xmlns="http://www.w3.org/2000/svg">
<path d="M22.4145 13.7311C22.0912 13.7311 21.829 13.9906 21.829 14.3105V16.5241C21.829 17.8018 20.7783 18.8414 19.487 18.8414H3.51303C2.22166 18.8414 1.17102 17.8018 1.17102 16.5241V14.3105C1.17102 13.9906 0.908904 13.7311 0.585512 13.7311C0.262119 13.7311 0 13.9905 0 14.3105V16.5241C0 18.4407 1.57595 20 3.51303 20H19.487C21.4241 20 23 18.4407 23 16.5241V14.3105C23 13.9905 22.7379 13.7311 22.4145 13.7311Z" fill="white"/>
<path d="M18.8597 16.0137H4.14031C3.81701 16.0137 3.5548 16.2731 3.5548 16.593C3.5548 16.9129 3.81692 17.1723 4.14031 17.1723H18.8596C19.183 17.1723 19.4452 16.913 19.4452 16.593C19.4452 16.2731 19.183 16.0137 18.8597 16.0137Z" fill="white"/>
<path d="M17.426 7.8634C17.2106 7.62486 16.8405 7.6041 16.5993 7.81727L12.0855 11.8071V0.579324C12.0855 0.259438 11.8233 0 11.5 0C11.1767 0 10.9144 0.259349 10.9144 0.579324V11.8071L6.4006 7.81731C6.15951 7.60415 5.78935 7.62495 5.57386 7.86345C5.35851 8.10209 5.3793 8.46833 5.62045 8.68146L10.5247 13.0162C10.8027 13.262 11.1512 13.3848 11.4999 13.3848C11.8485 13.3848 12.1971 13.262 12.4751 13.0164L17.3794 8.68146C17.6206 8.4682 17.6414 8.10195 17.426 7.8634Z" fill="white"/>
</svg>
