<svg width="16" height="16" viewBox="0 0 16 16" fill="none" xmlns="http://www.w3.org/2000/svg">
<path d="M7.75 15.5C3.475 15.5 0 12.025 0 7.75C0 5.4 1.05 3.225 2.85 1.725C3.075 1.55 3.375 1.575 3.55 1.8C3.725 2.025 3.7 2.325 3.475 2.5C1.9 3.8 1 5.7 1 7.75C1 11.475 4.025 14.5 7.75 14.5C11.475 14.5 14.5 11.475 14.5 7.75C14.5 5.7 13.6 3.8 12 2.525C11.775 2.35 11.75 2.025 11.925 1.825C12.1 1.6 12.425 1.575 12.625 1.75C14.45 3.225 15.5 5.4 15.5 7.75C15.5 12.025 12.025 15.5 7.75 15.5Z" fill="#575757"/>
<path d="M7.75 8.25C7.475 8.25 7.25 8.025 7.25 7.75V0.5C7.25 0.225 7.475 0 7.75 0C8.025 0 8.25 0.225 8.25 0.5V7.75C8.25 8.025 8.025 8.25 7.75 8.25Z" fill="#575757"/>
</svg>
