<svg width="13" height="16" viewBox="0 0 13 16" fill="none" xmlns="http://www.w3.org/2000/svg">
<path d="M12.6787 13.1943L11.9641 4.19069C11.9196 3.61063 11.429 3.15622 10.8473 3.15622H9.43594V3.09278C9.43594 1.38741 8.04853 0 6.34315 0C4.63778 0 3.25037 1.38741 3.25037 3.09278V3.15622H1.83906C1.25728 3.15622 0.766685 3.61059 0.72231 4.18947L0.00756008 13.1955C-0.0477524 13.9166 0.202404 14.6345 0.693841 15.1651C1.18528 15.6957 1.88193 16 2.60515 16H10.0811C10.8043 16 11.501 15.6957 11.9925 15.1651C12.4839 14.6345 12.734 13.9166 12.6787 13.1943ZM4.18756 3.09278C4.18756 1.90419 5.15459 0.937187 6.34315 0.937187C7.53172 0.937187 8.49875 1.90422 8.49875 3.09278V3.15622H4.18756V3.09278ZM11.3049 14.5283C10.9856 14.873 10.551 15.0628 10.0811 15.0628H2.60519C2.13531 15.0628 1.70075 14.873 1.38144 14.5283C1.06215 14.1836 0.906091 13.7357 0.941966 13.2684L1.65665 4.26234C1.6639 4.16759 1.74403 4.09341 1.83906 4.09341H3.25037V5.24762C3.25037 5.50641 3.46018 5.71622 3.71897 5.71622C3.97775 5.71622 4.18756 5.50641 4.18756 5.24762V4.09341H8.49875V5.24762C8.49875 5.50641 8.70856 5.71622 8.96734 5.71622C9.22612 5.71622 9.43594 5.50641 9.43594 5.24762V4.09341H10.8473C10.9423 4.09341 11.0224 4.16762 11.0298 4.26359L11.7443 13.2672C11.7802 13.7357 11.6242 14.1835 11.3049 14.5283Z" fill="#575757"/>
<path d="M8.45425 7.94641C8.27131 7.76341 7.97459 7.76341 7.79162 7.94641L5.69925 10.0388L4.89468 9.23422C4.71172 9.05122 4.415 9.05122 4.232 9.23422C4.049 9.41722 4.049 9.71391 4.232 9.89691L5.3679 11.0328C5.4594 11.1243 5.57934 11.1701 5.69922 11.1701C5.81909 11.1701 5.93906 11.1243 6.03053 11.0328L8.45422 8.60913C8.63725 8.42609 8.63725 8.12941 8.45425 7.94641Z" fill="#575757"/>
</svg>
