<svg width="12" height="16" viewBox="0 0 12 16" fill="none" xmlns="http://www.w3.org/2000/svg">
<path d="M10.6667 16H1.33333C0.598 16 0 15.402 0 14.6667V8C0 7.26467 0.598 6.66667 1.33333 6.66667H10.6667C11.402 6.66667 12 7.26467 12 8V14.6667C12 15.402 11.402 16 10.6667 16ZM1.33333 7.33333C0.965333 7.33333 0.666667 7.63267 0.666667 8V14.6667C0.666667 15.034 0.965333 15.3333 1.33333 15.3333H10.6667C11.0347 15.3333 11.3333 15.034 11.3333 14.6667V8C11.3333 7.63267 11.0347 7.33333 10.6667 7.33333H1.33333Z" fill="#575757"/>
<path d="M9.66667 7.33333C9.48267 7.33333 9.33333 7.184 9.33333 7V4C9.33333 2.162 7.838 0.666667 6 0.666667C4.162 0.666667 2.66667 2.162 2.66667 4V7C2.66667 7.184 2.51733 7.33333 2.33333 7.33333C2.14933 7.33333 2 7.184 2 7V4C2 1.794 3.794 0 6 0C8.206 0 10 1.794 10 4V7C10 7.184 9.85067 7.33333 9.66667 7.33333Z" fill="#575757"/>
</svg>
