<svg width="16" height="16" viewBox="0 0 16 16" fill="none" xmlns="http://www.w3.org/2000/svg">
<path d="M15.5019 1.94696L14.0521 0.496961C13.3896 -0.165506 12.3118 -0.165475 11.6493 0.496961C11.0256 1.12074 1.49887 10.6482 0.862214 11.2849C0.794402 11.3527 0.748965 11.4428 0.732777 11.531L0.00784107 15.446C-0.0202526 15.5977 0.0281223 15.7537 0.137278 15.8628C0.246559 15.9721 0.402497 16.0204 0.55409 15.9923L4.46874 15.2672C4.55921 15.2504 4.64814 15.2045 4.71483 15.1378L15.5019 4.34986C16.1659 3.68586 16.166 2.61105 15.5019 1.94696ZM1.05378 14.9462L1.49231 12.578L3.42187 14.5077L1.05378 14.9462ZM4.38339 14.1434L1.85656 11.6164L11.0819 2.39036L13.6087 4.91739L4.38339 14.1434ZM14.839 3.68695L14.2716 4.25449L11.7447 1.72746L12.3122 1.15993C12.6091 0.862991 13.0922 0.86296 13.3892 1.15993L14.839 2.60993C15.1367 2.90758 15.1367 3.38927 14.839 3.68695Z" fill="#575757"/>
</svg>
