<svg width="14" height="16" viewBox="0 0 14 16" fill="none" xmlns="http://www.w3.org/2000/svg">
<path d="M6.57347 7.70726C7.63231 7.70726 8.54906 7.3275 9.29832 6.57823C10.0473 5.82909 10.4272 4.91247 10.4272 3.85351C10.4272 2.79492 10.0475 1.87817 9.2982 1.12878C8.54893 0.37976 7.63219 0 6.57347 0C5.51452 0 4.59789 0.37976 3.84875 1.1289C3.0996 1.87805 2.71972 2.79479 2.71972 3.85351C2.71972 4.91247 3.0996 5.82921 3.84875 6.57836C4.59814 7.32738 5.51488 7.70726 6.57347 7.70726ZM4.51183 1.79187C5.08666 1.21704 5.76098 0.93762 6.57347 0.93762C7.38585 0.93762 8.06029 1.21704 8.63524 1.79187C9.21007 2.36682 9.48961 3.04125 9.48961 3.85351C9.48961 4.66601 9.21007 5.34032 8.63524 5.91527C8.06029 6.49022 7.38585 6.76964 6.57347 6.76964C5.76122 6.76964 5.0869 6.4901 4.51183 5.91527C3.93688 5.34044 3.65734 4.66601 3.65734 3.85351C3.65734 3.04125 3.93688 2.36682 4.51183 1.79187Z" fill="#CA1E24"/>
<path d="M13.3165 12.3032C13.2949 11.9914 13.2512 11.6513 13.1869 11.2922C13.1219 10.9304 13.0383 10.5884 12.9382 10.2757C12.8347 9.95262 12.6942 9.63353 12.5202 9.32774C12.3399 9.01036 12.128 8.73399 11.8902 8.50658C11.6416 8.26866 11.3371 8.07738 10.9851 7.93785C10.6343 7.79906 10.2455 7.72874 9.82957 7.72874C9.66624 7.72874 9.50828 7.79576 9.20323 7.99437C9.01549 8.11681 8.79588 8.25841 8.55077 8.41502C8.34117 8.54857 8.05724 8.67369 7.70653 8.78697C7.36437 8.89769 7.01695 8.95384 6.67394 8.95384C6.33116 8.95384 5.98375 8.89769 5.64135 8.78697C5.29101 8.67381 5.00695 8.54869 4.79772 8.41514C4.55492 8.25999 4.3352 8.11839 4.14465 7.99425C3.83984 7.79564 3.68188 7.72862 3.51855 7.72862C3.10253 7.72862 2.71386 7.79906 2.36315 7.93797C2.01135 8.07726 1.70678 8.26854 1.45788 8.5067C1.22009 8.73424 1.00818 9.01048 0.828001 9.32774C0.654296 9.63353 0.513671 9.9525 0.410155 10.2759C0.31018 10.5885 0.226562 10.9304 0.161621 11.2922C0.0971678 11.6509 0.0535888 11.9911 0.0319824 12.3036C0.0107422 12.6091 0 12.9271 0 13.2484C0 14.0836 0.265502 14.7597 0.789061 15.2584C1.30615 15.7505 1.99023 16 2.82238 16H10.5265C11.3584 16 12.0425 15.7505 12.5597 15.2584C13.0833 14.7601 13.3489 14.0837 13.3489 13.2483C13.3487 12.9259 13.3379 12.6079 13.3165 12.3032ZM11.9132 14.5791C11.5715 14.9043 11.1179 15.0623 10.5263 15.0623H2.82238C2.23071 15.0623 1.7771 14.9043 1.43554 14.5792C1.10046 14.2602 0.93762 13.8248 0.93762 13.2484C0.93762 12.9486 0.947508 12.6526 0.967283 12.3684C0.98657 12.0896 1.026 11.7833 1.08447 11.4579C1.14221 11.1365 1.2157 10.8348 1.3031 10.5617C1.38696 10.2999 1.50134 10.0406 1.64319 9.79087C1.77856 9.55284 1.93432 9.34861 2.1062 9.18406C2.26696 9.03013 2.4696 8.90416 2.70837 8.80968C2.92919 8.72227 3.17736 8.67442 3.44677 8.66722C3.47961 8.68468 3.53808 8.718 3.63281 8.77977C3.82555 8.90538 4.04772 9.04869 4.29333 9.20555C4.57018 9.38206 4.92687 9.54148 5.35302 9.67906C5.78869 9.81993 6.23302 9.89146 6.67406 9.89146C7.1151 9.89146 7.55956 9.81993 7.99498 9.67918C8.42149 9.54136 8.77806 9.38206 9.05528 9.2053C9.30662 9.04466 9.52256 8.9055 9.71531 8.77977C9.81004 8.71812 9.86851 8.68468 9.90135 8.66722C10.1709 8.67442 10.419 8.72227 10.64 8.80968C10.8786 8.90416 11.0813 9.03026 11.242 9.18406C11.4139 9.34849 11.5697 9.55272 11.7051 9.791C11.847 10.0406 11.9615 10.3 12.0453 10.5616C12.1328 10.8351 12.2064 11.1366 12.264 11.4577C12.3224 11.7838 12.3619 12.0902 12.3812 12.3685C12.4011 12.6516 12.4111 12.9477 12.4112 13.2484C12.4111 13.8249 12.2483 14.2602 11.9132 14.5791Z" fill="#CA1E24"/>
</svg>
