<svg width="14" height="14" viewBox="0 0 14 14" fill="none" xmlns="http://www.w3.org/2000/svg">
<path d="M11.1442 3.9858C10.9228 3.93743 10.7042 4.07756 10.6558 4.29886C10.6496 4.32762 10.4982 4.90231 10.2778 5.73654L9.87535 5.57102L8.99488 5.20899C8.68754 5.08321 8.66758 4.81825 8.68836 4.65556C8.71734 4.42997 8.70285 4.19946 8.6282 3.98427C8.47289 3.53665 8.13082 3.15274 7.69195 2.93345C7.55532 2.87739 7.45989 2.84608 7.40236 2.82932C8.00061 2.89946 8.55675 2.49204 8.66356 1.8917L8.75546 1.34748C8.8659 0.724373 8.45173 0.129154 7.82709 0.0178922C7.20373 -0.092932 6.60884 0.322556 6.49804 0.946185L6.40614 1.49041C6.30754 2.04505 6.62577 2.57683 7.13619 2.76547C7.05689 2.7524 6.97877 2.74584 6.90221 2.74584C6.15518 2.74584 5.5569 3.34604 5.42127 4.09225L4.70159 7.32838C6.16289 7.59307 7.44797 7.82609 7.84639 7.89822L7.92377 7.41533L7.66592 7.36721C6.81608 7.20834 6.24295 6.41318 6.36108 5.55678L6.49479 4.58772C6.52569 4.36322 6.73268 4.20654 6.95717 4.23744C7.18166 4.26834 7.33834 4.47533 7.30745 4.69983L7.17373 5.66889C7.11549 6.0908 7.39795 6.48264 7.81659 6.56084C8.2814 6.64449 8.43896 6.71749 9.93045 7.05018C9.66628 8.04897 9.36971 9.16949 9.11323 10.1393C9.00541 9.91887 8.95562 9.85574 8.51888 9.19722C8.3534 8.94768 8.09328 8.77642 7.79862 8.72305L4.52858 8.13067L3.49554 13.069C3.42811 13.5587 3.80958 14 4.30956 14C4.71097 14 5.05358 13.7102 5.11975 13.3145L6.18534 9.26161L7.12952 10.3466C7.55854 10.8396 7.80983 11.4622 7.84319 12.1149L7.90253 13.2847C7.92271 13.6846 8.25348 14 8.65612 14C9.07284 14 9.41081 13.6626 9.41081 13.2464V12.227L10.7503 7.15231C10.9571 7.09002 11.127 6.92424 11.1841 6.70005C11.2399 6.48064 11.1745 6.25711 11.0273 6.10302L11.4572 4.47413C11.5056 4.25284 11.3654 4.03422 11.1442 3.9858Z" fill="black"/>
<path d="M3.90104 7.15041L4.5242 4.3474L2.96342 4.00943L2.95686 4.04115L2.5519 6.01646C2.45154 6.49744 2.77119 6.96256 3.25326 7.04377L3.90049 7.15287C3.90076 7.15205 3.90076 7.15123 3.90104 7.15041Z" fill="black"/>
<path d="M5.50555 2.4254L4.89496 2.31001C4.48754 2.2329 4.07328 2.31739 3.72848 2.5479C3.47855 2.71497 3.28551 2.94493 3.16602 3.21372L4.71859 3.55005C4.87664 3.09559 5.15363 2.70786 5.50555 2.4254Z" fill="black"/>
</svg>
