<svg width="36" height="36" viewBox="0 0 36 36" fill="none" xmlns="http://www.w3.org/2000/svg">
<path d="M18 20.0475C16.4388 20.0494 14.9252 19.51 13.717 18.5213C12.5089 17.5326 11.6807 16.1557 11.3737 14.625C11.3492 14.4638 11.3601 14.2991 11.4056 14.1425C11.451 13.9859 11.53 13.841 11.637 13.718C11.744 13.5949 11.8765 13.4966 12.0253 13.4298C12.1741 13.363 12.3356 13.3294 12.4987 13.3312C12.7667 13.3274 13.0273 13.4193 13.2336 13.5905C13.4398 13.7617 13.5782 14.0009 13.6237 14.265C13.8356 15.2763 14.389 16.1839 15.191 16.8353C15.9931 17.4867 16.9948 17.8422 18.0281 17.8422C19.0613 17.8422 20.0631 17.4867 20.8651 16.8353C21.6671 16.1839 22.2206 15.2763 22.4325 14.265C22.478 14.0009 22.6163 13.7617 22.8226 13.5905C23.0288 13.4193 23.2894 13.3274 23.5575 13.3312C23.7205 13.3294 23.8821 13.363 24.0308 13.4298C24.1796 13.4966 24.3121 13.5949 24.4191 13.718C24.5261 13.841 24.6051 13.9859 24.6506 14.1425C24.6961 14.2991 24.7069 14.4638 24.6825 14.625C24.3736 16.1652 23.5372 17.5495 22.3174 18.5393C21.0976 19.5291 19.5708 20.0625 18 20.0475Z" fill="white"/>
<path d="M28.0125 34.875H7.9875C7.52972 34.8756 7.07661 34.783 6.65574 34.603C6.23486 34.4229 5.85502 34.1591 5.53931 33.8276C5.2236 33.4961 4.97863 33.1038 4.8193 32.6747C4.65997 32.2455 4.58961 31.7885 4.6125 31.3313L5.52375 11.9363C5.56146 11.0667 5.93362 10.2454 6.56252 9.64377C7.19141 9.04212 8.02841 8.70669 8.89875 8.70751H27.1012C27.9716 8.70669 28.8086 9.04212 29.4375 9.64377C30.0664 10.2454 30.4385 11.0667 30.4762 11.9363L31.3875 31.3313C31.4104 31.7885 31.34 32.2455 31.1807 32.6747C31.0214 33.1038 30.7764 33.4961 30.4607 33.8276C30.145 34.1591 29.7651 34.4229 29.3443 34.603C28.9234 34.783 28.4703 34.8756 28.0125 34.875ZM8.89875 10.9688C8.60038 10.9688 8.31423 11.0873 8.10325 11.2983C7.89227 11.5092 7.77375 11.7954 7.77375 12.0938L6.8625 31.4438C6.85487 31.5962 6.87832 31.7485 6.93143 31.8916C6.98454 32.0346 7.0662 32.1654 7.17144 32.2759C7.27667 32.3864 7.40329 32.4743 7.54358 32.5343C7.68387 32.5943 7.83491 32.6252 7.9875 32.625H28.0125C28.1651 32.6252 28.3161 32.5943 28.4564 32.5343C28.5967 32.4743 28.7233 32.3864 28.8286 32.2759C28.9338 32.1654 29.0155 32.0346 29.0686 31.8916C29.1217 31.7485 29.1451 31.5962 29.1375 31.4438L28.2262 12.0488C28.2262 11.7504 28.1077 11.4642 27.8967 11.2533C27.6858 11.0423 27.3996 10.9238 27.1012 10.9238L8.89875 10.9688Z" fill="white"/>
<path d="M24.75 9.84375H22.5V7.875C22.5 6.68153 22.0259 5.53693 21.182 4.69302C20.3381 3.84911 19.1935 3.375 18 3.375C16.8065 3.375 15.6619 3.84911 14.818 4.69302C13.9741 5.53693 13.5 6.68153 13.5 7.875V9.84375H11.25V7.875C11.25 6.08479 11.9612 4.3679 13.227 3.10203C14.4929 1.83616 16.2098 1.125 18 1.125C19.7902 1.125 21.5071 1.83616 22.773 3.10203C24.0388 4.3679 24.75 6.08479 24.75 7.875V9.84375Z" fill="white"/>
</svg>
