<svg width="36" height="36" viewBox="0 0 36 36" fill="none" xmlns="http://www.w3.org/2000/svg">
<path d="M32.625 33.75H3.375C2.75378 33.75 2.25 33.2462 2.25 32.625V3.375C2.25 2.75378 2.75378 2.25 3.375 2.25C3.99622 2.25 4.5 2.75378 4.5 3.375V31.5H32.625C33.2468 31.5 33.75 32.0038 33.75 32.625C33.75 33.2462 33.2468 33.75 32.625 33.75Z" fill="white"/>
<path d="M13.5 29.25C12.8788 29.25 12.375 28.7462 12.375 28.125V21.375H9V28.125C9 28.7462 8.49622 29.25 7.875 29.25C7.25378 29.25 6.75 28.7462 6.75 28.125V20.25C6.75 19.6288 7.25378 19.125 7.875 19.125H13.5C14.1212 19.125 14.625 19.6288 14.625 20.25V28.125C14.625 28.7462 14.1212 29.25 13.5 29.25Z" fill="white"/>
<path d="M22.5 29.25C21.8782 29.25 21.375 28.7462 21.375 28.125V4.5H18V28.125C18 28.7462 17.4962 29.25 16.875 29.25C16.2538 29.25 15.75 28.7462 15.75 28.125V3.375C15.75 2.75378 16.2538 2.25 16.875 2.25H22.5C23.1218 2.25 23.625 2.75378 23.625 3.375V28.125C23.625 28.7462 23.1218 29.25 22.5 29.25Z" fill="white"/>
<path d="M31.5 29.25C30.8782 29.25 30.375 28.7462 30.375 28.125V14.625H27V28.125C27 28.7462 26.4968 29.25 25.875 29.25C25.2532 29.25 24.75 28.7462 24.75 28.125V13.5C24.75 12.8788 25.2532 12.375 25.875 12.375H31.5C32.1218 12.375 32.625 12.8788 32.625 13.5V28.125C32.625 28.7462 32.1218 29.25 31.5 29.25Z" fill="white"/>
</svg>
