<svg width="17" height="17" viewBox="0 0 17 17" fill="none" xmlns="http://www.w3.org/2000/svg">
<path d="M16.4654 0.0562019C16.7576 0.159132 17 0.507765 17 0.829834C17 0.89624 16.9768 1.02573 16.9469 1.11538C16.8971 1.2648 16.5949 1.57691 13.2846 4.89058L9.67871 8.49976L13.2713 12.0957C15.2436 14.0712 16.8871 15.738 16.917 15.8011C17.0664 16.1 16.9967 16.5084 16.751 16.7507C16.5219 16.9832 16.2098 17.0529 15.8844 16.9466C15.735 16.8968 15.4229 16.5947 12.1125 13.2843L8.5 9.67847L4.8875 13.2843C1.57715 16.5947 1.26504 16.8968 1.11563 16.9466C0.790236 17.0529 0.478127 16.9832 0.249023 16.7507C0.0166016 16.5216 -0.0531235 16.2095 0.0531254 15.8841C0.10293 15.7347 0.405079 15.4226 3.71543 12.1089L7.32129 8.49976L3.71543 4.88726C0.405079 1.57691 0.10293 1.2648 0.0531254 1.11538C-0.0531235 0.789991 0.0166016 0.477882 0.249023 0.248779C0.478127 0.0163574 0.790236 -0.0533676 1.11563 0.0528812C1.26504 0.102686 1.57715 0.404835 4.89082 3.71519L8.5 7.32105L12.1125 3.71519C15.4229 0.404835 15.735 0.102686 15.8844 0.0528812C16.0869 -0.013525 16.2729 -0.0102043 16.4654 0.0562019Z" fill="#7C7C7C"/>
</svg>
