<svg width="49" height="50" viewBox="0 0 49 50" fill="none" xmlns="http://www.w3.org/2000/svg">
<path d="M18.2853 45.8612C18.8245 45.8612 19.2618 45.424 19.2618 44.8846C19.2618 44.3453 18.8245 43.9081 18.2853 43.9081H15.1634C14.6241 43.9081 14.1868 44.3453 14.1868 44.8846C14.1868 45.424 14.6241 45.8612 15.1634 45.8612H18.2853Z" fill="#C1272D"/>
<path d="M43.1894 0H21.0509C18.0192 0 15.5527 2.4665 15.5527 5.49814V6.00283H3.87207C1.73701 6.00283 0 7.73984 0 9.8749V24.4946C0 25.034 0.437305 25.4712 0.976562 25.4712C1.51582 25.4712 1.95312 25.034 1.95312 24.4946V9.875C1.95312 8.81689 2.81396 7.95605 3.87207 7.95605H15.5527V10.2549H5.32617C4.78691 10.2549 4.34961 10.6921 4.34961 11.2314V40.4033C4.34961 40.9427 4.78691 41.3799 5.32617 41.3799H27.8301C28.3693 41.3799 28.8066 40.9427 28.8066 40.4033V26.958H31.1055V46.1279C31.1055 47.186 30.2442 48.0469 29.1855 48.0469H3.87207C2.81396 48.0469 1.95312 47.186 1.95312 46.1279V33.0857C1.95312 32.5464 1.51582 32.1092 0.976562 32.1092C0.437305 32.1092 0 32.5464 0 33.0857V46.1279C0 48.263 1.73701 50 3.87207 50H29.1855C31.3212 50 33.0586 48.263 33.0586 46.1279V26.9575H43.1893C46.221 26.9575 48.6875 24.491 48.6875 21.4594V5.49814C48.6875 2.4665 46.221 0 43.1894 0V0ZM6.30273 39.4268V12.208H15.5528V21.459C15.5525 24.4532 18.0604 26.958 21.0509 26.958H21.8049V30.5205C21.8049 31.3515 22.8211 31.798 23.4346 31.2466L26.8536 28.1727V39.4268H6.30273ZM46.7344 21.4594C46.7344 23.4142 45.144 25.0044 43.1893 25.0044H27.8301C27.5921 25.0044 27.354 25.0957 27.177 25.2548L23.758 28.329V25.981C23.758 25.4416 23.3207 25.0044 22.7814 25.0044H21.0508C19.1214 25.0044 17.5058 23.3904 17.5058 21.459V5.49814C17.5059 3.54346 19.0962 1.95312 21.0509 1.95312H43.1893C45.144 1.95312 46.7344 3.54346 46.7344 5.49814V21.4594Z" fill="#C1272D"/>
<path d="M10.2171 18.2944H12.8967C13.4359 18.2944 13.8733 17.8572 13.8733 17.3179C13.8733 16.7785 13.4359 16.3413 12.8967 16.3413H10.2171C9.67784 16.3413 9.24054 16.7785 9.24054 17.3179C9.24054 17.8572 9.67775 18.2944 10.2171 18.2944Z" fill="#C1272D"/>
<path d="M10.2171 24.1022H12.8967C13.4359 24.1022 13.8733 23.665 13.8733 23.1256C13.8733 22.5863 13.4359 22.149 12.8967 22.149H10.2171C9.67784 22.149 9.24054 22.5863 9.24054 23.1256C9.24054 23.665 9.67775 24.1022 10.2171 24.1022Z" fill="#C1272D"/>
<path d="M10.2171 29.9099H17.6993C18.2386 29.9099 18.6759 29.4727 18.6759 28.9333C18.6759 28.394 18.2386 27.9568 17.6993 27.9568H10.2171C9.67784 27.9568 9.24054 28.394 9.24054 28.9333C9.24054 29.4727 9.67775 29.9099 10.2171 29.9099Z" fill="#C1272D"/>
<path d="M23.1757 33.7646H10.2171C9.67784 33.7646 9.24054 34.2019 9.24054 34.7412C9.24054 35.2806 9.67784 35.7178 10.2171 35.7178H23.1757C23.715 35.7178 24.1523 35.2806 24.1523 34.7412C24.1523 34.2019 23.7151 33.7646 23.1757 33.7646Z" fill="#C1272D"/>
<path d="M0.165042 29.2071C0.456741 29.6533 1.07842 29.7684 1.51846 29.4766C1.9625 29.1822 2.08145 28.5652 1.78809 28.1231C1.49356 27.6794 0.876566 27.5601 0.434573 27.8536C-0.00859072 28.1477 -0.129587 28.7655 0.165042 29.2071Z" fill="#C1272D"/>
<path d="M43.3249 6.79519H40.3225V5.19519C40.3225 4.65583 39.8852 4.21863 39.3459 4.21863H34.6504C33.7082 4.21863 32.8085 4.58337 32.1346 5.22927C31.4606 4.58337 30.5609 4.21863 29.6187 4.21863H24.9232C24.384 4.21863 23.9467 4.65583 23.9467 5.19519V6.79519H21.001C20.4617 6.79519 20.0244 7.2324 20.0244 7.77175V21.2835C20.0244 21.8228 20.4617 22.26 21.001 22.26H43.325C43.8643 22.26 44.3016 21.8228 44.3016 21.2835V7.77175C44.3015 7.2324 43.8643 6.79519 43.3249 6.79519ZM34.6504 6.17175H38.3693V16.4048H34.6504C34.1198 16.4048 33.5917 16.5224 33.1111 16.747V7.06052L33.3788 6.75193C33.6988 6.38318 34.1623 6.17175 34.6504 6.17175ZM29.6187 6.17175C30.1068 6.17175 30.5703 6.38328 30.8903 6.75193L31.1581 7.06052V16.747C30.6773 16.5224 30.1495 16.4048 29.6187 16.4048H25.9002V7.77175C25.9002 7.7698 25.8999 7.76804 25.8999 7.76609V6.17175H29.6187ZM21.9775 8.74832H23.9468V17.3813C23.9468 17.9207 24.3841 18.3579 24.9233 18.3579H29.6187C30.1068 18.3579 30.5703 18.5694 30.8903 18.9381L31.1581 19.2467V20.3069H21.9775V8.74832ZM42.3483 20.3069H33.1111V19.2467L33.3788 18.9381C33.6987 18.5694 34.1622 18.3579 34.6504 18.3579H39.3459C39.8782 18.3579 40.3228 17.9135 40.3228 17.3813V8.74832H42.3483V20.3069Z" fill="#C1272D"/>
</svg>
