<svg width="40" height="40" viewBox="0 0 40 40" fill="none" xmlns="http://www.w3.org/2000/svg">
<g clip-path="url(#clip0_22_190)">
<path d="M4.26066 27.8494L6.66066 30.2494V36.6667C6.66172 37.5504 7.01324 38.3977 7.63814 39.0225C8.26303 39.6474 9.11026 39.999 9.99399 40H36.6667C37.5504 39.999 38.3976 39.6474 39.0225 39.0225C39.6474 38.3977 39.9989 37.5504 40 36.6667V20C39.9974 19.1586 39.6762 18.3494 39.1011 17.7353C38.5259 17.1211 37.7394 16.7477 36.9 16.69C37.2361 16.0613 37.3623 15.3415 37.26 14.6359C37.1576 13.9304 36.8322 13.276 36.3313 12.7687L27.842 4.27403L27.838 4.26669H27.832L24.5447 0.975361C23.9197 0.35168 23.0729 0.00140381 22.19 0.00140381C21.3071 0.00140381 20.4603 0.35168 19.8353 0.975361L0.97399 19.844C0.3522 20.4723 0.00341797 21.3205 0.00341797 22.2044C0.00341797 23.0883 0.3522 23.9365 0.97399 24.5647L4.26066 27.8494ZM24.54 2.85603L26.4233 4.74069L14.504 16.6667H10.7333L24.54 2.85603ZM6.66666 24.504L4.73332 26.4374L2.84932 24.5534L6.66666 20.7334V24.504ZM5.67599 27.38L6.66666 26.3894V28.3707L5.67599 27.38ZM38.6667 20V36.6667C38.6667 37.1971 38.4559 37.7058 38.0809 38.0809C37.7058 38.456 37.1971 38.6667 36.6667 38.6667H9.99999C9.46956 38.6667 8.96085 38.456 8.58578 38.0809C8.2107 37.7058 7.99999 37.1971 7.99999 36.6667V20C7.99999 19.4696 8.2107 18.9609 8.58578 18.5858C8.96085 18.2107 9.46956 18 9.99999 18H36.6667C37.1971 18 37.7058 18.2107 38.0809 18.5858C38.4559 18.9609 38.6667 19.4696 38.6667 20ZM35.3887 16.542L35.2667 16.6667H16.3887L27.366 5.68403L35.3867 13.7094C35.7607 14.0857 35.9708 14.5947 35.9712 15.1253C35.9715 15.6559 35.7622 16.1651 35.3887 16.542ZM1.91799 20.7847L20.778 1.91803C21.1578 1.55504 21.6628 1.35214 22.1882 1.35139C22.7136 1.35065 23.2191 1.55211 23.6 1.91403L8.45066 17.0667C7.86132 17.379 7.37921 17.8608 7.06666 18.45L1.90799 23.6094C1.53957 23.2309 1.33425 22.7231 1.33612 22.195C1.33799 21.6668 1.5469 21.1605 1.91799 20.7847Z" fill="#C1272D"/>
<path d="M10.6666 25.3333H14.6666C15.0203 25.3333 15.3594 25.1929 15.6095 24.9428C15.8595 24.6928 16 24.3536 16 24V21.3333C16 20.9797 15.8595 20.6406 15.6095 20.3905C15.3594 20.1405 15.0203 20 14.6666 20H10.6666C10.313 20 9.97389 20.1405 9.72384 20.3905C9.47379 20.6406 9.33331 20.9797 9.33331 21.3333V24C9.33331 24.3536 9.47379 24.6928 9.72384 24.9428C9.97389 25.1929 10.313 25.3333 10.6666 25.3333ZM10.6666 21.3333H14.6666V24H10.6666V21.3333Z" fill="#C1272D"/>
<path d="M9.99998 29.3334C10.1768 29.3334 10.3464 29.2631 10.4714 29.1381C10.5964 29.0131 10.6666 28.8435 10.6666 28.6667V27.3334C10.6666 27.1565 10.5964 26.987 10.4714 26.8619C10.3464 26.7369 10.1768 26.6667 9.99998 26.6667C9.82317 26.6667 9.6536 26.7369 9.52858 26.8619C9.40355 26.987 9.33331 27.1565 9.33331 27.3334V28.6667C9.33331 28.8435 9.40355 29.0131 9.52858 29.1381C9.6536 29.2631 9.82317 29.3334 9.99998 29.3334Z" fill="#C1272D"/>
<path d="M12.6667 26.6667C12.4899 26.6667 12.3203 26.7369 12.1953 26.8619C12.0702 26.987 12 27.1565 12 27.3334V28.6667C12 28.8435 12.0702 29.0131 12.1953 29.1381C12.3203 29.2631 12.4899 29.3334 12.6667 29.3334C12.8435 29.3334 13.013 29.2631 13.1381 29.1381C13.2631 29.0131 13.3333 28.8435 13.3333 28.6667V27.3334C13.3333 27.1565 13.2631 26.987 13.1381 26.8619C13.013 26.7369 12.8435 26.6667 12.6667 26.6667Z" fill="#C1272D"/>
<path d="M14.6667 27.3334V28.6667C14.6667 28.8435 14.7369 29.0131 14.8619 29.1381C14.987 29.2631 15.1565 29.3334 15.3334 29.3334C15.5102 29.3334 15.6797 29.2631 15.8048 29.1381C15.9298 29.0131 16 28.8435 16 28.6667V27.3334C16 27.1565 15.9298 26.987 15.8048 26.8619C15.6797 26.7369 15.5102 26.6667 15.3334 26.6667C15.1565 26.6667 14.987 26.7369 14.8619 26.8619C14.7369 26.987 14.6667 27.1565 14.6667 27.3334Z" fill="#C1272D"/>
<path d="M18 26.6667C17.8232 26.6667 17.6536 26.7369 17.5286 26.8619C17.4036 26.987 17.3333 27.1565 17.3333 27.3334V28.6667C17.3333 28.8435 17.4036 29.0131 17.5286 29.1381C17.6536 29.2631 17.8232 29.3334 18 29.3334C18.1768 29.3334 18.3464 29.2631 18.4714 29.1381C18.5964 29.0131 18.6666 28.8435 18.6666 28.6667V27.3334C18.6666 27.1565 18.5964 26.987 18.4714 26.8619C18.3464 26.7369 18.1768 26.6667 18 26.6667Z" fill="#C1272D"/>
<path d="M20.6667 29.3334C20.8435 29.3334 21.013 29.2631 21.1381 29.1381C21.2631 29.0131 21.3333 28.8435 21.3333 28.6667V27.3334C21.3333 27.1565 21.2631 26.987 21.1381 26.8619C21.013 26.7369 20.8435 26.6667 20.6667 26.6667C20.4899 26.6667 20.3203 26.7369 20.1953 26.8619C20.0702 26.987 20 27.1565 20 27.3334V28.6667C20 28.8435 20.0702 29.0131 20.1953 29.1381C20.3203 29.2631 20.4899 29.3334 20.6667 29.3334Z" fill="#C1272D"/>
<path d="M26 26.6667C25.8232 26.6667 25.6536 26.7369 25.5286 26.8619C25.4036 26.987 25.3333 27.1565 25.3333 27.3334V28.6667C25.3333 28.8435 25.4036 29.0131 25.5286 29.1381C25.6536 29.2631 25.8232 29.3334 26 29.3334C26.1768 29.3334 26.3464 29.2631 26.4714 29.1381C26.5964 29.0131 26.6666 28.8435 26.6666 28.6667V27.3334C26.6666 27.1565 26.5964 26.987 26.4714 26.8619C26.3464 26.7369 26.1768 26.6667 26 26.6667Z" fill="#C1272D"/>
<path d="M28.6667 26.6667C28.4899 26.6667 28.3203 26.7369 28.1953 26.8619C28.0702 26.987 28 27.1565 28 27.3334V28.6667C28 28.8435 28.0702 29.0131 28.1953 29.1381C28.3203 29.2631 28.4899 29.3334 28.6667 29.3334C28.8435 29.3334 29.013 29.2631 29.1381 29.1381C29.2631 29.0131 29.3333 28.8435 29.3333 28.6667V27.3334C29.3333 27.1565 29.2631 26.987 29.1381 26.8619C29.013 26.7369 28.8435 26.6667 28.6667 26.6667Z" fill="#C1272D"/>
<path d="M31.3334 26.6667C31.1565 26.6667 30.987 26.7369 30.8619 26.8619C30.7369 26.987 30.6667 27.1565 30.6667 27.3334V28.6667C30.6667 28.8435 30.7369 29.0131 30.8619 29.1381C30.987 29.2631 31.1565 29.3334 31.3334 29.3334C31.5102 29.3334 31.6797 29.2631 31.8048 29.1381C31.9298 29.0131 32 28.8435 32 28.6667V27.3334C32 27.1565 31.9298 26.987 31.8048 26.8619C31.6797 26.7369 31.5102 26.6667 31.3334 26.6667Z" fill="#C1272D"/>
<path d="M34 26.6667C33.8232 26.6667 33.6536 26.7369 33.5286 26.8619C33.4036 26.987 33.3333 27.1565 33.3333 27.3334V28.6667C33.3333 28.8435 33.4036 29.0131 33.5286 29.1381C33.6536 29.2631 33.8232 29.3334 34 29.3334C34.1768 29.3334 34.3464 29.2631 34.4714 29.1381C34.5964 29.0131 34.6666 28.8435 34.6666 28.6667V27.3334C34.6666 27.1565 34.5964 26.987 34.4714 26.8619C34.3464 26.7369 34.1768 26.6667 34 26.6667Z" fill="#C1272D"/>
<path d="M12.6666 30.6667H9.99998C9.82317 30.6667 9.6536 30.7369 9.52858 30.8619C9.40355 30.987 9.33331 31.1565 9.33331 31.3334C9.33331 31.5102 9.40355 31.6797 9.52858 31.8048C9.6536 31.9298 9.82317 32 9.99998 32H12.6666C12.8435 32 13.013 31.9298 13.1381 31.8048C13.2631 31.6797 13.3333 31.5102 13.3333 31.3334C13.3333 31.1565 13.2631 30.987 13.1381 30.8619C13.013 30.7369 12.8435 30.6667 12.6666 30.6667Z" fill="#C1272D"/>
<path d="M18 30.6667H15.3334C15.1565 30.6667 14.987 30.7369 14.8619 30.8619C14.7369 30.987 14.6667 31.1565 14.6667 31.3334C14.6667 31.5102 14.7369 31.6797 14.8619 31.8048C14.987 31.9298 15.1565 32 15.3334 32H18C18.1768 32 18.3464 31.9298 18.4714 31.8048C18.5965 31.6797 18.6667 31.5102 18.6667 31.3334C18.6667 31.1565 18.5965 30.987 18.4714 30.8619C18.3464 30.7369 18.1768 30.6667 18 30.6667Z" fill="#C1272D"/>
<path d="M12.6666 33.3333H9.99998C9.82317 33.3333 9.6536 33.4036 9.52858 33.5286C9.40355 33.6536 9.33331 33.8232 9.33331 34C9.33331 34.1768 9.40355 34.3464 9.52858 34.4714C9.6536 34.5964 9.82317 34.6666 9.99998 34.6666H12.6666C12.8435 34.6666 13.013 34.5964 13.1381 34.4714C13.2631 34.3464 13.3333 34.1768 13.3333 34C13.3333 33.8232 13.2631 33.6536 13.1381 33.5286C13.013 33.4036 12.8435 33.3333 12.6666 33.3333Z" fill="#C1272D"/>
<path d="M18 33.3333H15.3334C15.1565 33.3333 14.987 33.4036 14.8619 33.5286C14.7369 33.6536 14.6667 33.8232 14.6667 34C14.6667 34.1768 14.7369 34.3464 14.8619 34.4714C14.987 34.5964 15.1565 34.6666 15.3334 34.6666H18C18.1768 34.6666 18.3464 34.5964 18.4714 34.4714C18.5965 34.3464 18.6667 34.1768 18.6667 34C18.6667 33.8232 18.5965 33.6536 18.4714 33.5286C18.3464 33.4036 18.1768 33.3333 18 33.3333Z" fill="#C1272D"/>
<path d="M23.3333 30.6667H20.6667C20.4899 30.6667 20.3203 30.7369 20.1953 30.8619C20.0702 30.987 20 31.1565 20 31.3334C20 31.5102 20.0702 31.6797 20.1953 31.8048C20.3203 31.9298 20.4899 32 20.6667 32H23.3333C23.5101 32 23.6797 31.9298 23.8047 31.8048C23.9298 31.6797 24 31.5102 24 31.3334C24 31.1565 23.9298 30.987 23.8047 30.8619C23.6797 30.7369 23.5101 30.6667 23.3333 30.6667Z" fill="#C1272D"/>
</g>
<defs>
<clipPath id="clip0_22_190">
<rect width="40" height="40" fill="white"/>
</clipPath>
</defs>
</svg>
