<svg width="16" height="16" viewBox="0 0 16 16" fill="none" xmlns="http://www.w3.org/2000/svg">
<path d="M15.9268 1.10753C15.8052 0.864165 15.5618 0.725098 15.301 0.725098H0.698975C0.438224 0.725098 0.194856 0.881548 0.0731723 1.10753C-0.0485116 1.3509 -0.0137448 1.62904 0.142706 1.83764L6.27905 9.55587V14.5797C6.27905 14.8404 6.41812 15.0664 6.6441 15.1881C6.7484 15.2403 6.8527 15.275 6.97439 15.275C7.11345 15.275 7.25252 15.2402 7.37421 15.1533L9.30377 13.8148C9.5819 13.6062 9.73835 13.2933 9.73835 12.963V9.53849L15.8573 1.83764C16.0138 1.62904 16.0485 1.3509 15.9268 1.10753ZM9.11255 9.2082C9.07778 9.26035 9.04301 9.32989 9.04301 9.41681V12.9456C9.04301 13.0673 8.99086 13.1716 8.90395 13.2412L6.97439 14.5797V9.41681C6.97439 9.29512 6.92224 9.19082 6.83532 9.13867L2.90667 4.20178H9.21685C9.40807 4.20178 9.56452 4.04533 9.56452 3.85411C9.56452 3.66289 9.40807 3.50644 9.21685 3.50644H2.43732C2.41993 3.50644 2.38517 3.50644 2.36778 3.50644L0.698975 1.42043H15.301L9.11255 9.2082Z" fill="black"/>
</svg>
