<svg width="40" height="40" viewBox="0 0 40 40" fill="none" xmlns="http://www.w3.org/2000/svg">
<path d="M3.75002 15.2625V34.325C3.75002 34.8793 3.85939 35.4281 4.07187 35.94C4.28435 36.4519 4.59576 36.9168 4.98825 37.3081C5.38074 37.6995 5.8466 38.0095 6.35913 38.2205C6.87165 38.4314 7.42077 38.5392 7.97502 38.5375H32.0375C33.1547 38.5375 34.2262 38.0937 35.0162 37.3037C35.8062 36.5137 36.25 35.4422 36.25 34.325V15.2625C36.25 14.1441 35.8066 13.0714 35.017 12.2794C34.2273 11.4874 33.1559 11.0408 32.0375 11.0375H29.3625C29.7314 10.657 30.0583 10.238 30.3375 9.78752C30.872 8.89236 31.1667 7.87447 31.1929 6.8322C31.2192 5.78992 30.9763 4.75848 30.4875 3.83752C30.0624 3.09511 29.4436 2.48205 28.6973 2.06377C27.951 1.64549 27.1052 1.43768 26.25 1.46252C25.3135 1.43267 24.3816 1.60604 23.5185 1.97072C22.6553 2.33539 21.8814 2.88271 21.25 3.57502C20.7506 4.10382 20.3296 4.70159 20 5.35002C19.6897 4.70541 19.2899 4.10785 18.8125 3.57502C18.1811 2.88271 17.4072 2.33539 16.5441 1.97072C15.6809 1.60604 14.7491 1.43267 13.8125 1.46252C12.957 1.43687 12.1104 1.64286 11.3623 2.05872C10.6142 2.47458 9.99235 3.08485 9.56252 3.82502C9.07378 4.74598 8.83081 5.77742 8.85709 6.8197C8.88337 7.86197 9.178 8.87986 9.71252 9.77502C9.99174 10.2255 10.3186 10.6445 10.6875 11.025H7.97502C7.41913 11.025 6.86871 11.1347 6.35529 11.3478C5.84187 11.5609 5.37556 11.8733 4.98306 12.2669C4.59057 12.6606 4.27962 13.1278 4.06803 13.6418C3.85644 14.1559 3.74837 14.7066 3.75002 15.2625ZM33.75 15.2625V34.325C33.75 34.5499 33.7057 34.7726 33.6197 34.9804C33.5336 35.1881 33.4075 35.3769 33.2484 35.5359C33.0894 35.695 32.9006 35.8211 32.6929 35.9072C32.4851 35.9932 32.2624 36.0375 32.0375 36.0375H21.25L21.3375 13.5375H32.075C32.5238 13.5505 32.9498 13.738 33.2626 14.0601C33.5753 14.3822 33.7502 14.8136 33.75 15.2625ZM26.25 4.01252C26.6672 3.98441 27.0838 4.07373 27.4528 4.27037C27.8218 4.467 28.1283 4.76307 28.3375 5.12502C28.6123 5.66469 28.7418 6.26662 28.7133 6.87155C28.6848 7.47648 28.4993 8.06357 28.175 8.57502C27.6375 9.51252 26.225 11.075 22.825 11.075H21.25C21.25 9.56252 21.5375 6.87502 22.9875 5.28752C23.3982 4.83748 23.9043 4.48494 24.4688 4.25569C25.0333 4.02644 25.6418 3.92627 26.25 3.96252V4.01252ZM11.8375 8.52502C11.5132 8.01357 11.3277 7.42648 11.2992 6.82155C11.2707 6.21662 11.4002 5.61469 11.675 5.07502C11.8833 4.71507 12.1878 4.42029 12.5544 4.22378C12.9209 4.02727 13.3349 3.9368 13.75 3.96252C14.3422 3.92617 14.9351 4.01915 15.4877 4.23501C16.0403 4.45087 16.5393 4.78443 16.95 5.21252C18.4125 6.83752 18.675 9.52502 18.75 11.0375H17.1875C13.75 11.0375 12.375 9.46252 11.8375 8.52502ZM6.25002 15.2625C6.25002 14.805 6.43176 14.3663 6.75526 14.0428C7.07876 13.7193 7.51752 13.5375 7.97502 13.5375H18.75L18.6625 36.0375H7.97502C7.74908 36.0392 7.52505 35.9961 7.31583 35.9108C7.10662 35.8254 6.91636 35.6996 6.75601 35.5404C6.59566 35.3812 6.4684 35.1919 6.38156 34.9833C6.29472 34.7747 6.25001 34.551 6.25002 34.325V15.2625Z" fill="#C1272D"/>
</svg>
