<svg width="14" height="14" viewBox="0 0 14 14" fill="none" xmlns="http://www.w3.org/2000/svg">
<path d="M6.99191 0.000671387C6.74096 0.000671387 6.49019 0.0141619 6.24067 0.0410554C6.01197 0.0644157 5.78608 0.102726 5.56322 0.149213C5.52009 0.158236 5.47694 0.167756 5.43381 0.177713C4.12076 0.476666 2.92179 1.14801 1.9807 2.11124C1.89318 2.20094 1.80751 2.2933 1.72373 2.38829C-0.818445 5.30681 -0.51336 9.73357 2.40518 12.2758C5.1993 14.7096 9.40517 14.5476 12.0039 11.9062C12.0916 11.8165 12.1772 11.7241 12.2608 11.6291C13.3827 10.3515 14.001 8.70902 14 7.00872C14 3.13824 10.8624 0.000642187 6.99191 0.000671387ZM2.29209 2.46164C2.329 2.42333 2.36731 2.38666 2.40492 2.34951C2.44837 2.30677 2.49159 2.26378 2.53597 2.22244C2.57498 2.18599 2.61516 2.15095 2.65511 2.11545C2.70019 2.0755 2.74504 2.03555 2.7913 1.99701C2.83194 1.96267 2.87376 1.92973 2.91534 1.89656C2.96206 1.85918 3.00878 1.82181 3.0569 1.78583C3.09942 1.75383 3.14264 1.72276 3.18608 1.69239C3.23444 1.65782 3.28303 1.62231 3.33232 1.59007C3.37647 1.56017 3.42109 1.53121 3.46594 1.50247C3.51593 1.47047 3.56616 1.43893 3.61685 1.40903C3.66249 1.38179 3.70842 1.35498 3.75467 1.32867C3.80639 1.29924 3.85831 1.27051 3.91049 1.24247C3.95721 1.21757 4.00393 1.19318 4.05065 1.16936C4.10391 1.14249 4.15764 1.11656 4.2116 1.0911C4.25832 1.06891 4.30691 1.04671 4.35503 1.02569C4.40993 1.00233 4.46553 0.978969 4.52112 0.955609C4.56948 0.935753 4.6176 0.916364 4.66642 0.897676C4.72296 0.876184 4.78019 0.856094 4.83742 0.836005C4.88624 0.818952 4.93507 0.801899 4.98459 0.78578C5.04276 0.767092 5.10139 0.749805 5.16026 0.732752C5.20955 0.718503 5.25837 0.703786 5.3079 0.69047C5.32682 0.685565 5.34574 0.681593 5.36466 0.676688C4.6732 1.34809 4.16006 2.18135 3.87171 3.10101C3.31725 2.95478 2.78049 2.74822 2.27106 2.485C2.27877 2.47683 2.28531 2.46865 2.29209 2.46164ZM1.95617 2.83774C2.51731 3.14178 3.11235 3.37859 3.72898 3.54322C3.4267 4.59432 3.26802 5.68147 3.25733 6.77511H0.45644C0.507336 5.33294 1.03472 3.94832 1.95617 2.83774ZM1.95617 11.1797C1.03478 10.0691 0.507395 8.68446 0.45644 7.24232H3.25733C3.26802 8.33596 3.42667 9.42311 3.72898 10.4742C3.11238 10.6389 2.51734 10.8757 1.95617 11.1797ZM5.30649 13.3279C5.25931 13.316 5.21048 13.3006 5.16189 13.2863C5.10279 13.269 5.04346 13.2517 4.98506 13.2328C4.93577 13.2169 4.88718 13.1999 4.83859 13.1828C4.78112 13.163 4.72366 13.1426 4.66689 13.1209C4.6183 13.1025 4.57041 13.0831 4.52229 13.0635C4.46646 13.0401 4.41063 13.0167 4.35527 12.9934C4.30761 12.9724 4.26019 12.9507 4.213 12.9284C4.15857 12.9027 4.10438 12.8766 4.04948 12.8495C4.00276 12.8261 3.95604 12.8028 3.90932 12.7773C3.85652 12.749 3.8042 12.7201 3.75187 12.6902C3.70515 12.6642 3.66077 12.6376 3.61568 12.6105C3.56429 12.5797 3.51383 12.5479 3.46337 12.5154C3.41899 12.4872 3.3746 12.4584 3.33092 12.429C3.28116 12.3954 3.23187 12.3603 3.18305 12.3253C3.1403 12.2947 3.09755 12.2641 3.0555 12.2318C3.00715 12.1954 2.95972 12.1578 2.91254 12.1199C2.87119 12.087 2.83008 12.0543 2.78966 12.0204C2.74294 11.9816 2.69786 11.9412 2.65254 11.9011C2.61282 11.8658 2.57288 11.831 2.5341 11.795C2.48948 11.7534 2.44627 11.7102 2.40282 11.6674C2.36521 11.6303 2.32689 11.5936 2.28999 11.5556C2.28321 11.5483 2.27667 11.5408 2.2699 11.5338C2.7793 11.2705 3.31606 11.0639 3.87054 10.9176C4.15895 11.8372 4.67206 12.6705 5.36349 13.3419C5.34457 13.337 5.32542 13.333 5.30649 13.3279ZM6.75833 13.5311C5.75875 13.3891 4.88251 12.3458 4.3312 10.8052C5.12826 10.6268 5.94163 10.531 6.75833 10.5195V13.5311ZM6.75833 10.0523C5.89196 10.0637 5.02924 10.1666 4.1845 10.3593C3.89118 9.34582 3.73645 8.2973 3.72454 7.24232H6.75833V10.0523ZM6.75833 6.77511H3.72454C3.73642 5.72014 3.89116 4.67161 4.1845 3.65816C5.02924 3.85079 5.89199 3.95369 6.75833 3.96511V6.77511ZM6.75833 3.4979C5.9416 3.48652 5.12826 3.39077 4.3312 3.21221C4.88251 1.6716 5.75875 0.628332 6.75833 0.486302V3.4979ZM12.0277 2.83774C12.9491 3.94835 13.4765 5.33297 13.5274 6.77511H10.7265C10.7159 5.68147 10.5572 4.59432 10.2549 3.54322C10.8715 3.3785 11.4665 3.14172 12.0277 2.83774ZM8.67551 0.689302C8.72457 0.70145 8.77339 0.716867 8.82198 0.731117C8.88108 0.748404 8.94041 0.76569 8.99882 0.784612C9.04811 0.800497 9.09669 0.81755 9.14528 0.834603C9.20275 0.854459 9.26022 0.874783 9.31698 0.896508C9.36557 0.914962 9.41346 0.934351 9.46158 0.953974C9.51741 0.977334 9.57324 1.00069 9.62861 1.02405C9.67626 1.04508 9.72368 1.06672 9.77087 1.089C9.8253 1.11469 9.8795 1.14086 9.93439 1.16795C9.98111 1.19131 10.0278 1.21467 10.0746 1.24014C10.1273 1.2684 10.1797 1.29737 10.232 1.32727C10.2787 1.3532 10.3231 1.37983 10.3682 1.40693C10.4196 1.43776 10.47 1.46953 10.5205 1.50201C10.5649 1.53027 10.6093 1.559 10.653 1.58844C10.7027 1.62208 10.7518 1.65688 10.8006 1.69192C10.8436 1.72253 10.8863 1.75336 10.9286 1.78536C10.9767 1.82157 11.0239 1.85918 11.0713 1.89703C11.1125 1.92973 11.1538 1.96244 11.1942 1.99654C11.2409 2.03532 11.286 2.07573 11.3313 2.11591C11.371 2.15119 11.411 2.18599 11.4498 2.22197C11.4944 2.26355 11.5376 2.30677 11.5811 2.34951C11.6187 2.38666 11.657 2.42333 11.6939 2.46141C11.7007 2.46865 11.7072 2.47613 11.714 2.48314C11.2046 2.74646 10.6678 2.95311 10.1133 3.09938C9.82437 2.17963 9.31059 1.34646 8.61851 0.675286C8.63743 0.680192 8.65659 0.684163 8.67551 0.689302ZM7.22554 0.486302C8.22512 0.628332 9.10137 1.6716 9.65267 3.21221C8.85562 3.39068 8.04224 3.48643 7.22554 3.4979V0.486302ZM7.22554 3.96511C8.09191 3.95372 8.95464 3.85082 9.79937 3.65816C10.0927 4.67161 10.2474 5.72014 10.2593 6.77511H7.22554V3.96511ZM7.22554 7.24232H10.2593C10.2474 8.2973 10.0927 9.34582 9.79937 10.3593C8.95464 10.1666 8.09191 10.0637 7.22554 10.0523V7.24232ZM7.22554 13.5311V10.5195C8.04227 10.5309 8.85562 10.6267 9.65267 10.8052C9.10137 12.3458 8.22512 13.3891 7.22554 13.5311ZM11.6918 11.5558C11.6549 11.5939 11.6168 11.6305 11.5792 11.6677C11.5357 11.7104 11.4923 11.7536 11.4477 11.7952C11.4089 11.8314 11.3689 11.8653 11.3292 11.9015C11.2839 11.9417 11.2388 11.9819 11.1926 12.0207C11.1517 12.0548 11.1101 12.0877 11.0685 12.1209C11.0218 12.1582 10.9751 12.1956 10.927 12.2316C10.8845 12.2636 10.8412 12.2947 10.7978 12.325C10.7494 12.3596 10.7008 12.3951 10.6516 12.4274C10.6074 12.4573 10.5628 12.4862 10.5179 12.5147C10.4679 12.547 10.4176 12.5781 10.3668 12.6082C10.3201 12.6355 10.2755 12.6621 10.2294 12.6885C10.1777 12.718 10.1257 12.7467 10.0734 12.7747C10.0267 12.7996 9.97995 12.824 9.93322 12.8478C9.87996 12.8747 9.82624 12.9006 9.77227 12.9261C9.72555 12.9483 9.67696 12.9705 9.62884 12.9915C9.57395 13.0149 9.51835 13.0382 9.46275 13.0616C9.41439 13.0812 9.36627 13.1008 9.31768 13.1193C9.26068 13.141 9.20345 13.1613 9.14598 13.1812C9.0974 13.1982 9.04881 13.2153 8.99952 13.2312C8.94112 13.2501 8.88272 13.2674 8.82315 13.2844C8.77432 13.2989 8.72527 13.3134 8.67598 13.3267C8.65705 13.3316 8.63813 13.3356 8.61921 13.3405C9.31067 12.6691 9.82381 11.8358 10.1122 10.9162C10.6666 11.0624 11.2034 11.269 11.7128 11.5322C11.7051 11.5406 11.6986 11.5488 11.6918 11.5558ZM12.0277 11.1797C11.4666 10.8757 10.8715 10.6388 10.2549 10.4742C10.5572 9.42311 10.7159 8.33596 10.7265 7.24232H13.5274C13.4766 8.68446 12.9492 10.0691 12.0277 11.1797Z" fill="black"/>
</svg>
