<svg width="20" height="20" viewBox="0 0 20 20" fill="none" xmlns="http://www.w3.org/2000/svg">
<path d="M12.9337 0H8.16398C6.03856 0 4.56729 0.465986 3.24309 1.5599C2.20166 2.45841 1.58014 3.76424 1.58014 5.05314C1.58014 7.03895 3.09417 9.14931 5.89976 9.14931C6.16951 9.14931 6.46819 9.12163 6.73175 9.09705L6.69292 9.19144C6.58014 9.46162 6.47335 9.7165 6.47335 10.1143C6.47335 10.8889 6.847 11.3667 7.20826 11.8283L7.2537 11.8868L7.17294 11.8923C6.01439 11.9717 3.85799 12.1196 2.28283 13.0877C0.422418 14.1938 0.277832 15.8028 0.277832 16.2694C0.277832 18.1259 2.00791 19.9998 5.87332 19.9998C10.3679 19.9998 12.7197 17.5201 12.7197 15.0708C12.7201 13.2591 11.6578 12.3647 10.5302 11.4152L9.57906 10.6753C9.28514 10.4318 8.91913 10.1288 8.91913 9.56737C8.91913 9.01546 9.28514 8.6511 9.60819 8.3297L9.64186 8.29562C10.669 7.48655 11.8332 6.56924 11.8332 4.58508C11.8332 2.59019 10.5866 1.55928 9.98721 1.06375H11.57C11.5894 1.06375 11.6088 1.05838 11.625 1.04785L12.9884 0.190649C13.0272 0.166069 13.0454 0.118769 13.0326 0.074566C13.0204 0.0303634 12.9795 0 12.9337 0ZM7.1496 18.9069C4.4099 18.9069 2.56911 17.6273 2.56911 15.7227C2.56911 14.479 3.32199 13.5753 4.80483 13.0381C5.99229 12.6384 7.52511 12.6186 7.5404 12.6186C7.80003 12.6186 7.93057 12.6186 8.13795 12.6446C10.055 14.0089 10.9766 14.7252 10.9766 16.0895C10.9764 17.8275 9.50987 18.9069 7.1496 18.9069ZM7.12378 8.41831C4.82445 8.41831 3.87018 5.39581 3.87018 3.77746C3.87018 2.95455 4.05732 2.32291 4.44233 1.84597C4.86018 1.32318 5.57568 0.985469 6.26515 0.985469C8.37631 0.985469 9.54374 3.82311 9.54374 5.78434C9.54374 6.09375 9.54374 7.03502 8.89352 7.68876C8.45625 8.12521 7.74509 8.41831 7.12378 8.41831Z" fill="#CA1E24"/>
<path d="M19.6188 9.34114H17.1055V6.83668C17.1055 6.77967 17.059 6.7334 17.0022 6.7334H15.9211C15.8641 6.7334 15.8179 6.77967 15.8179 6.83668V9.34114H13.3171C13.2601 9.34114 13.2139 9.38741 13.2139 9.44442V10.54C13.2139 10.5968 13.2601 10.6433 13.3171 10.6433H15.8179V13.1638C15.8179 13.2206 15.8641 13.2671 15.9211 13.2671H17.0022C17.059 13.2671 17.1055 13.2206 17.1055 13.1638V10.6428H19.6188C19.6758 10.6428 19.7221 10.5968 19.7221 10.5396V9.44442C19.7221 9.3872 19.676 9.34114 19.6188 9.34114Z" fill="#CA1E24"/>
</svg>
