<svg width="26" height="24" viewBox="0 0 26 24" fill="none" xmlns="http://www.w3.org/2000/svg">
<path d="M13 23.5535C12.6298 23.5535 12.273 23.4194 11.9949 23.1758C10.9445 22.2574 9.93188 21.3943 9.03845 20.633L9.03389 20.629C6.41449 18.3969 4.15255 16.4691 2.57873 14.5702C0.819441 12.4473 0 10.4345 0 8.23564C0 6.09926 0.732558 4.12831 2.06259 2.68561C3.40849 1.22585 5.25525 0.421875 7.26329 0.421875C8.76411 0.421875 10.1386 0.896362 11.3484 1.83205C11.959 2.30435 12.5124 2.88239 13 3.55663C13.4878 2.88239 14.041 2.30435 14.6518 1.83205C15.8616 0.896362 17.236 0.421875 18.7369 0.421875C20.7447 0.421875 22.5917 1.22585 23.9376 2.68561C25.2676 4.12831 26 6.09926 26 8.23564C26 10.4345 25.1807 12.4473 23.4214 14.57C21.8476 16.4691 19.5859 18.3967 16.9669 20.6286C16.0718 21.3912 15.0576 22.2556 14.0049 23.1762C13.727 23.4194 13.3699 23.5535 13 23.5535ZM7.26329 1.94492C5.6857 1.94492 4.23646 2.57452 3.18215 3.7179C2.11218 4.87852 1.52284 6.48289 1.52284 8.23564C1.52284 10.085 2.21017 11.739 3.75126 13.5984C5.24077 15.3958 7.4563 17.2838 10.0215 19.47L10.0263 19.474C10.9231 20.2383 11.9397 21.1047 12.9978 22.0299C14.0622 21.1029 15.0804 20.2351 15.979 19.4696C18.544 17.2834 20.7594 15.3958 22.2489 13.5984C23.7898 11.739 24.4771 10.085 24.4771 8.23564C24.4771 6.48289 23.8878 4.87852 22.8178 3.7179C21.7637 2.57452 20.3142 1.94492 18.7369 1.94492C17.5812 1.94492 16.5201 2.31229 15.5833 3.03671C14.7484 3.68259 14.1668 4.49905 13.8258 5.07034C13.6504 5.36412 13.3418 5.53947 13 5.53947C12.6582 5.53947 12.3495 5.36412 12.1742 5.07034C11.8334 4.49905 11.2518 3.68259 10.4167 3.03671C9.47981 2.31229 8.41876 1.94492 7.26329 1.94492Z" fill="#7C7C7C"/>
</svg>
