<svg width="36" height="33" viewBox="0 0 36 33" fill="none" xmlns="http://www.w3.org/2000/svg">
<path d="M18 32.9972C17.4875 32.9972 16.9934 32.8115 16.6083 32.4742C15.154 31.2026 13.7519 30.0075 12.5148 28.9534L12.5085 28.9479C8.88162 25.8572 5.74969 23.188 3.57056 20.5587C1.13461 17.6194 0 14.8324 0 11.7878C0 8.82974 1.01431 6.10074 2.8559 4.10315C4.71945 2.08194 7.27652 0.96875 10.0569 0.96875C12.1349 0.96875 14.0381 1.62573 15.7132 2.9213C16.5586 3.57526 17.3249 4.37561 18 5.30917C18.6754 4.37561 19.4414 3.57526 20.2871 2.9213C21.9622 1.62573 23.8653 0.96875 25.9434 0.96875C28.7235 0.96875 31.2808 2.08194 33.1444 4.10315C34.986 6.10074 36 8.82974 36 11.7878C36 14.8324 34.8657 17.6194 32.4297 20.5585C30.2506 23.188 27.1189 25.8569 23.4926 28.9474C22.2534 30.0031 20.849 31.2001 19.3914 32.4748C19.0066 32.8115 18.5122 32.9972 18 32.9972ZM10.0569 3.07758C7.87253 3.07758 5.86588 3.94934 4.40607 5.53247C2.92456 7.1395 2.10855 9.36093 2.10855 11.7878C2.10855 14.3484 3.06024 16.6385 5.19406 19.2132C7.25647 21.7019 10.3241 24.3161 13.876 27.3431L13.8826 27.3486C15.1243 28.4068 16.532 29.6065 17.997 30.8875C19.4708 29.6041 20.8806 28.4024 22.1248 27.3425C25.6764 24.3155 28.7438 21.7019 30.8062 19.2132C32.9398 16.6385 33.8914 14.3484 33.8914 11.7878C33.8914 9.36093 33.0754 7.1395 31.5939 5.53247C30.1344 3.94934 28.1275 3.07758 25.9434 3.07758C24.3432 3.07758 22.8741 3.58624 21.5769 4.58929C20.4208 5.48358 19.6155 6.61407 19.1434 7.40509C18.9006 7.81186 18.4732 8.05466 18 8.05466C17.5268 8.05466 17.0994 7.81186 16.8566 7.40509C16.3847 6.61407 15.5794 5.48358 14.4231 4.58929C13.1259 3.58624 11.6568 3.07758 10.0569 3.07758Z" fill="white"/>
</svg>
