<svg width="35" height="35" viewBox="0 0 35 35" fill="none" xmlns="http://www.w3.org/2000/svg">
<circle cx="17.0323" cy="17.0323" r="17.0323" fill="#F5F5F5"/>
<path d="M17.0001 14.335C15.5305 14.335 14.335 15.5305 14.335 17C14.335 18.4695 15.5305 19.665 17.0001 19.665C18.4696 19.665 19.6652 18.4695 19.6652 17C19.6652 15.5305 18.4696 14.335 17.0001 14.335Z" fill="#7C7C7C"/>
<path d="M20.2949 10H13.7051C11.6621 10 10 11.6621 10 13.7051V20.2949C10 22.3379 11.6621 24 13.7051 24H20.2949C22.3379 24 24 22.3379 24 20.2949V13.7051C24 11.6621 22.3379 10 20.2949 10ZM17.0001 20.4853C15.0783 20.4853 13.5147 18.9218 13.5147 17C13.5147 15.0782 15.0783 13.5147 17.0001 13.5147C18.922 13.5147 20.4855 15.0782 20.4855 17C20.4855 18.9218 18.922 20.4853 17.0001 20.4853ZM21.1893 13.391C21.113 13.4673 21.0072 13.511 20.8992 13.511C20.7915 13.511 20.6857 13.4673 20.6091 13.391C20.5328 13.3144 20.4893 13.2086 20.4893 13.1009C20.4893 12.9929 20.5328 12.8873 20.6091 12.8108C20.6857 12.7345 20.7912 12.6907 20.8992 12.6907C21.0072 12.6907 21.113 12.7345 21.1893 12.8108C21.2656 12.8873 21.3094 12.9929 21.3094 13.1009C21.3094 13.2089 21.2656 13.3144 21.1893 13.391Z" fill="#7C7C7C"/>
</svg>
