<svg width="35" height="35" viewBox="0 0 35 35" fill="none" xmlns="http://www.w3.org/2000/svg">
<circle cx="17.0323" cy="17.0323" r="17.0323" fill="#F5F5F5"/>
<g clip-path="url(#clip0_69_1005)">
<path d="M16.0313 19.2596C15.6638 21.1868 15.2148 23.0347 13.8848 23.9999C13.4744 21.0867 14.4877 18.899 14.958 16.5764C14.1558 15.2256 15.0546 12.5076 16.7469 13.1776C18.8291 14.0012 14.9438 18.1987 17.5521 18.7229C20.2756 19.27 21.3871 13.9976 19.6986 12.2832C17.2585 9.80717 12.5958 12.2265 13.1692 15.7714C13.3087 16.6379 14.2042 16.901 13.5271 18.0967C11.9653 17.7505 11.4993 16.519 11.5592 14.877C11.6557 12.1891 13.9742 10.3073 16.2998 10.047C19.2406 9.71776 22.0007 11.1265 22.3819 13.8932C22.8112 17.0155 21.0543 20.3971 17.9098 20.154C17.0572 20.0879 16.6996 19.6654 16.0313 19.2596Z" fill="#7C7C7C"/>
</g>
<defs>
<clipPath id="clip0_69_1005">
<rect width="14" height="14" fill="white" transform="translate(10 10)"/>
</clipPath>
</defs>
</svg>
