<svg width="40" height="40" viewBox="0 0 40 40" fill="none" xmlns="http://www.w3.org/2000/svg">
<circle cx="20" cy="20" r="19.5" stroke="#CA1E24"/>
<path d="M24.444 22.6667C23.8331 22.6667 23.2721 22.8743 22.8225 23.2199L18.1832 20.4364C18.2065 20.294 18.2218 20.1488 18.2218 20C18.2218 19.8508 18.2065 19.706 18.1832 19.5634L22.8225 16.7799C23.2721 17.1259 23.8331 17.3333 24.444 17.3333C25.9165 17.3333 27.1107 16.1392 27.1107 14.6667C27.1107 13.1941 25.9165 12 24.444 12C22.9714 12 21.7773 13.1941 21.7773 14.6667C21.7773 14.8155 21.7926 14.9607 21.8163 15.1031L17.177 17.8866C16.7274 17.541 16.1663 17.3333 15.5551 17.3333C14.0826 17.3333 12.8884 18.5275 12.8884 20C12.8884 21.4725 14.0826 22.6667 15.5551 22.6667C16.1663 22.6667 16.7274 22.4592 17.177 22.1132L21.8163 24.8967C21.7926 25.0393 21.7773 25.1842 21.7773 25.3333C21.7773 26.8059 22.9714 28 24.444 28C25.9165 28 27.1107 26.8059 27.1107 25.3333C27.1107 23.8608 25.9165 22.6667 24.444 22.6667Z" fill="#CA1E24"/>
</svg>
