<svg width="40" height="40" viewBox="0 0 40 40" fill="none" xmlns="http://www.w3.org/2000/svg">
<path d="M34.456 16.5346H34.357V14.1089C34.357 6.31678 28.0403 0 20.2481 0C12.4559 0 6.13919 6.31678 6.13919 14.1089V16.5346H5.54516C3.36692 16.5346 1.68378 18.4653 1.68378 20.6931V26.8812C1.62892 29.0404 3.3349 30.8352 5.49409 30.8901C5.51115 30.8906 5.52811 30.8909 5.54516 30.8911H9.20851C9.72739 30.8667 10.1283 30.4262 10.1039 29.9073C10.103 29.8886 10.1016 29.87 10.0996 29.8514V17.7227C10.0996 17.1287 9.75307 16.5346 9.20851 16.5346H8.11939V14.1088C8.11939 7.41036 13.5496 1.98011 20.2481 1.98011C26.9466 1.98011 32.3768 7.41036 32.3768 14.1088V16.5346H31.2877C30.7431 16.5346 30.3966 17.1286 30.3966 17.7227V29.8514C30.3414 30.3679 30.7153 30.8315 31.2318 30.8867C31.2503 30.8887 31.269 30.8901 31.2877 30.891H32.4263L32.3272 31.0394C30.8418 33.0137 28.5108 34.17 26.0401 34.1582C25.4993 31.5061 22.9107 29.7945 20.2586 30.3355C17.9906 30.798 16.3554 32.7843 16.3372 35.0989C16.3643 37.8136 18.5728 40 21.2877 39.9998C22.6316 39.978 23.9126 39.4265 24.852 38.4651C25.4858 37.8161 25.9011 36.9854 26.0401 36.0889C29.1341 36.1006 32.0519 34.6509 33.9114 32.178L34.852 30.7918C36.9807 30.6434 38.3173 29.3067 38.3173 27.376V21.1879C38.3174 19.0594 36.7333 16.5346 34.456 16.5346ZM8.11939 28.9109H5.54516C4.47916 28.8849 3.63603 27.9998 3.66199 26.9338C3.66247 26.9163 3.66313 26.8987 3.66398 26.8811V20.693C3.66398 19.5544 4.45604 18.5148 5.54516 18.5148H8.11939V28.9109ZM23.4164 37.0792C22.8678 37.674 22.097 38.0147 21.2878 38.0198C19.6771 37.9942 18.37 36.709 18.3175 35.099C18.3168 33.4858 19.6239 32.1776 21.2371 32.177C22.8502 32.1763 24.1584 33.4835 24.159 35.0966C24.159 35.0973 24.159 35.0982 24.159 35.099C24.2003 35.834 23.9308 36.5525 23.4164 37.0792ZM36.3372 27.3762C36.3372 28.7128 35.05 28.9109 34.456 28.9109H32.3768V18.5148H34.456C35.5451 18.5148 36.3372 20.0495 36.3372 21.1881V27.3762Z" fill="#C1272D"/>
</svg>
