<svg width="19" height="15" viewBox="0 0 19 15" fill="none" xmlns="http://www.w3.org/2000/svg">
<g clip-path="url(#clip0_300_1300)">
<path fill-rule="evenodd" clip-rule="evenodd" d="M5.55252 14.9994C12.21 14.9994 15.8514 9.22783 15.8514 4.22333C15.8514 4.05904 15.8514 3.89568 15.8408 3.73323C16.5492 3.19788 17.1605 2.53332 17.6466 1.77277C16.9867 2.0792 16.2854 2.28042 15.5683 2.36903C16.3234 1.89553 16.8888 1.15159 17.1596 0.273823C16.4486 0.715017 15.6714 1.02607 14.8608 1.19313C13.49 -0.331664 11.1973 -0.405504 9.73913 1.02884C8.79966 1.95368 8.40005 3.33264 8.69204 4.64791C5.78187 4.49469 3.07019 3.05666 1.23183 0.691018C0.271192 2.42164 0.76254 4.63498 2.35303 5.74628C1.77699 5.72874 1.21331 5.56629 0.709613 5.27278V5.32078C0.710495 7.12339 1.92519 8.67588 3.61359 9.03308C3.08078 9.18537 2.52152 9.20753 1.97988 9.09769C2.45359 10.6409 3.81296 11.6978 5.36109 11.7282C4.07937 12.7823 2.49593 13.3546 0.865749 13.3527C0.578175 13.3518 0.290599 13.3342 0.00390625 13.2982C1.65968 14.4096 3.58537 14.9994 5.55252 14.9965" fill="#CA1E24"/>
</g>
<defs>
<clipPath id="clip0_300_1300">
<rect width="19" height="15" fill="white"/>
</clipPath>
</defs>
</svg>
