<svg width="35" height="35" viewBox="0 0 35 35" fill="none" xmlns="http://www.w3.org/2000/svg">
<circle cx="17.0323" cy="17.9678" r="17.0323" fill="#F5F5F5"/>
<path d="M13.4765 25.2204C14.8557 25.2637 16.2302 25.0472 17.5187 24.5838C18.8072 24.1204 19.9835 23.4194 20.9783 22.5223C21.973 21.6252 22.7659 20.5501 23.3101 19.3607C23.8544 18.1713 24.1389 16.8916 24.1468 15.5973C24.7789 14.8636 25.2482 14.0189 25.5272 13.1127C25.5481 13.0411 25.5464 12.9654 25.5224 12.8947C25.4984 12.824 25.4531 12.7613 25.392 12.7141C25.3309 12.667 25.2566 12.6374 25.178 12.629C25.0994 12.6205 25.0198 12.6336 24.9489 12.6666C24.6183 12.8159 24.246 12.8641 23.8846 12.8044C23.5231 12.7448 23.1908 12.5803 22.9343 12.3341C22.6068 11.9978 22.2108 11.7266 21.7695 11.5365C21.3283 11.3464 20.8509 11.2413 20.3655 11.2274C19.8802 11.2135 19.3968 11.2912 18.9441 11.4557C18.4913 11.6203 18.0784 11.8684 17.7297 12.1854C17.2523 12.619 16.9027 13.1611 16.7147 13.7589C16.5268 14.3568 16.5069 14.9901 16.6571 15.5973C13.5325 15.7722 11.3872 14.3812 9.67104 12.4741C9.61948 12.4193 9.55204 12.3798 9.47694 12.3604C9.40185 12.341 9.32236 12.3426 9.24817 12.3648C9.17398 12.3871 9.10831 12.4291 9.05918 12.4858C9.01005 12.5425 8.97958 12.6114 8.9715 12.6841C8.64456 14.3851 8.8804 16.1393 9.64736 17.7109C10.4143 19.2826 11.6757 20.5965 13.262 21.4761C12.1984 22.6203 10.7047 23.3349 9.09275 23.4707C9.0064 23.4842 8.92668 23.5226 8.86475 23.5806C8.80283 23.6387 8.7618 23.7134 8.74741 23.7944C8.73302 23.8754 8.74599 23.9586 8.78449 24.0323C8.823 24.106 8.88513 24.1666 8.96217 24.2056C10.3645 24.8629 11.9088 25.2101 13.4765 25.2204Z" fill="#7C7C7C"/>
</svg>
