<svg width="36" height="36" viewBox="0 0 36 36" fill="none" xmlns="http://www.w3.org/2000/svg">
<path d="M22.7109 16.6201C25.26 15.0323 26.9602 12.2047 26.9602 8.98682C26.9602 4.03143 22.9287 0 17.9734 0C13.018 0 8.98654 4.03143 8.98654 8.98682C8.98654 12.2047 10.6867 15.032 13.2355 16.6198C7.82034 18.5674 3.9375 23.7544 3.9375 29.8317V34.9113C3.9375 35.5125 4.42502 36 5.02625 36H30.9199C31.5211 36 32.0084 35.5125 32.0084 34.9113V29.8317C32.0084 23.7546 28.1258 18.568 22.7109 16.6201ZM29.8312 33.8225H6.11499V29.8317C6.11499 23.2932 11.4343 17.9739 17.9731 17.9739C24.5116 17.9739 29.8312 23.2932 29.8312 29.8317V33.8225ZM24.7827 8.98682C24.7827 12.7417 21.7282 15.7964 17.9734 15.7964C14.2185 15.7964 11.164 12.7417 11.164 8.98682C11.164 5.23224 14.2185 2.17749 17.9734 2.17749C21.7282 2.17749 24.7827 5.23224 24.7827 8.98682Z" fill="white"/>
</svg>
